<svg xmlns="http://www.w3.org/2000/svg" viewBox="0 0 32 32">
  <circle cx="16" cy="16" r="14.5" fill="#cc0000"/>
  <g transform="translate(5.54 22.65) scale(0.0187 -0.0187)">
    <path d="M94 -11Q51 -11 17.0 0.0Q-17 11 -43 33L11 145Q21 136 50.5 123.5Q80 111 120 111Q158 111 184.5 126.0Q211 141 229.0 170.5Q247 200 260.0 244.5Q273 289 286 349L363 709H501L424 349Q407 268 384.0 202.0Q361 136 326.0 88.0Q291 40 234.5 14.5Q178 -11 94 -11Z" fill="white"/>
  </g>
  <g transform="translate(12.07 22.65) scale(0.0187 -0.0187)">
    <path d="M291 -5Q235 -5 188.0 17.0Q141 39 107.5 78.5Q74 118 55.5 171.5Q37 225 37 287Q37 373 71.5 450.0Q106 527 165.0 587.0Q224 647 298.0 681.0Q372 715 453 715Q548 715 607.5 672.5Q667 630 687 560L568 484Q555 537 515.5 565.0Q476 593 423 593Q374 593 329.5 568.5Q285 544 251.0 503.0Q217 462 197.5 410.0Q178 358 178 302Q178 250 196.0 208.0Q214 166 248.0 141.5Q282 117 329 117Q380 117 432.0 145.0Q484 173 535 227L506 91Q454 42 401.0 18.5Q348 -5 291 -5ZM533 264H398L420 365H669L591 0H477Z" fill="white"/>
  </g>
</svg>