<?xml version="1.0" encoding="utf-8"?>
<!-- Generator: Adobe Illustrator 23.0.4, SVG Export Plug-In . SVG Version: 6.00 Build 0)  -->
<svg version="1.1" id="レイヤー_1" xmlns="http://www.w3.org/2000/svg" xmlns:xlink="http://www.w3.org/1999/xlink" x="0px"
	 y="0px" viewBox="0 0 380.91 85.04" style="enable-background:new 0 0 380.91 85.04;" xml:space="preserve" preserveAspectRatio="none">
<style type="text/css">
	.st0{fill:#231815;}
	.st1{clip-path:url(#SVGID_2_);}
	.st2{fill:url(#SVGID_3_);}
	.st3{fill:url(#SVGID_4_);}
	.st4{fill:url(#SVGID_5_);}
</style>
<g>
	<path class="st0" d="M121.9,42.52c0-9.51,0.36-12.88,1.6-16.61c3.11-9.59,10.93-14.57,21.59-14.57c11.28,0,18.57,6.04,21.05,12.79
		c0.18,0.44,0.09,0.98-0.36,1.24l-7.46,3.29c-0.53,0.18-0.98-0.09-1.16-0.44c-2.66-4.8-6.31-7.46-12.17-7.46
		c-6.13,0-9.68,3.02-11.37,7.91c-0.71,2.22-1.07,5.24-1.07,13.86c0,8.53,0.36,11.64,1.07,13.86c1.69,4.89,5.24,7.91,11.37,7.91
		c5.33,0,9.86-2.66,11.46-7.55c0.62-1.87,0.98-4.35,0.98-7.82c0-0.36-0.18-0.53-0.53-0.53h-9.95c-0.53,0-0.89-0.36-0.89-0.89v-7.11
		c0-0.53,0.36-0.89,0.89-0.89h19.99c0.53,0,0.89,0.35,0.89,0.89v5.24c0,4.98-0.44,10.22-1.42,13.24
		c-2.93,9.42-10.93,14.84-21.32,14.84c-10.66,0-18.48-4.97-21.59-14.57C122.25,55.4,121.9,52.02,121.9,42.52z"/>
	<path class="st0" d="M213.62,72.72c-0.71,0-1.07-0.27-1.33-0.89l-11.55-23.54h-10.39c-0.36,0-0.53,0.18-0.53,0.53v23.01
		c0,0.53-0.36,0.89-0.89,0.89h-8.71c-0.53,0-0.89-0.36-0.89-0.89V13.2c0-0.53,0.35-0.89,0.89-0.89h23.36
		c11.1,0,19.28,7.37,19.28,18.03c0,7.91-4.53,14.04-11.46,16.61l12.7,24.61c0.36,0.62,0,1.16-0.62,1.16H213.62z M212.46,30.35
		c0-5.24-3.73-8.62-9.24-8.62h-12.88c-0.36,0-0.53,0.18-0.53,0.53v16.08c0,0.36,0.18,0.53,0.53,0.53h12.88
		C208.73,38.88,212.46,35.5,212.46,30.35z"/>
	<path class="st0" d="M234.53,13.2c0-0.53,0.35-0.89,0.89-0.89h37.84c0.53,0,0.89,0.36,0.89,0.89v7.64c0,0.53-0.35,0.89-0.89,0.89
		h-27.72c-0.36,0-0.53,0.18-0.53,0.53v14.75c0,0.36,0.18,0.53,0.53,0.53h23.36c0.53,0,0.89,0.36,0.89,0.89v7.64
		c0,0.53-0.35,0.89-0.89,0.89h-23.36c-0.36,0-0.53,0.18-0.53,0.53v15.28c0,0.35,0.18,0.53,0.53,0.53h27.72
		c0.53,0,0.89,0.35,0.89,0.89v7.64c0,0.53-0.35,0.89-0.89,0.89h-37.84c-0.53,0-0.89-0.36-0.89-0.89V13.2z"/>
	<path class="st0" d="M285.2,13.2c0-0.53,0.36-0.89,0.89-0.89h37.84c0.53,0,0.89,0.36,0.89,0.89v7.64c0,0.53-0.36,0.89-0.89,0.89
		h-27.72c-0.35,0-0.53,0.18-0.53,0.53v14.75c0,0.36,0.18,0.53,0.53,0.53h23.36c0.53,0,0.89,0.36,0.89,0.89v7.64
		c0,0.53-0.36,0.89-0.89,0.89h-23.36c-0.35,0-0.53,0.18-0.53,0.53v15.28c0,0.35,0.18,0.53,0.53,0.53h27.72
		c0.53,0,0.89,0.35,0.89,0.89v7.64c0,0.53-0.36,0.89-0.89,0.89h-37.84c-0.53,0-0.89-0.36-0.89-0.89V13.2z"/>
	<path class="st0" d="M335.87,13.2c0-0.53,0.36-0.89,0.89-0.89h8.17c0.71,0,1.16,0.27,1.51,0.89l24.61,41.66h0.36V13.2
		c0-0.53,0.36-0.89,0.89-0.89h7.73c0.53,0,0.89,0.36,0.89,0.89v58.63c0,0.53-0.36,0.89-0.89,0.89h-8.08c-0.71,0-1.16-0.27-1.51-0.89
		l-24.7-41.57h-0.36v41.57c0,0.53-0.35,0.89-0.89,0.89h-7.73c-0.53,0-0.89-0.36-0.89-0.89V13.2z"/>
</g>
<g>
	<g>
		<defs>
			<path id="SVGID_1_" d="M66.14,85.04H18.9C8.5,85.04,0,76.54,0,66.14V18.9C0,8.5,8.5,0,18.9,0h47.24c10.39,0,18.9,8.5,18.9,18.9
				v47.24C85.04,76.54,76.54,85.04,66.14,85.04z"/>
		</defs>
		<clipPath id="SVGID_2_">
			<use xlink:href="#SVGID_1_"  style="overflow:visible;"/>
		</clipPath>
		<g class="st1">
			
				<linearGradient id="SVGID_3_" gradientUnits="userSpaceOnUse" x1="1844.5656" y1="101.383" x2="1887.0852" y2="101.383" gradientTransform="matrix(1 0 0 1 -1844.5656 -80.1232)">
				<stop  offset="0" style="stop-color:#122951"/>
				<stop  offset="0.3201" style="stop-color:#282962"/>
				<stop  offset="1" style="stop-color:#2D6089"/>
			</linearGradient>
			<rect x="0" y="0" class="st2" width="42.52" height="42.52"/>
			
				<linearGradient id="SVGID_4_" gradientUnits="userSpaceOnUse" x1="1855.1954" y1="112.0129" x2="1918.975" y2="175.7925" gradientTransform="matrix(1 0 0 1 -1844.5656 -80.1232)">
				<stop  offset="3.806090e-04" style="stop-color:#669DB7"/>
				<stop  offset="0.5" style="stop-color:#5AB0A9"/>
				<stop  offset="1" style="stop-color:#60B299"/>
			</linearGradient>
			<rect x="0" y="42.52" class="st3" width="85.04" height="42.52"/>
			
				<linearGradient id="SVGID_5_" gradientUnits="userSpaceOnUse" x1="1908.3451" y1="80.1232" x2="1908.3451" y2="122.6429" gradientTransform="matrix(1 0 0 1 -1844.5656 -80.1232)">
				<stop  offset="0" style="stop-color:#B3D8EF"/>
				<stop  offset="1" style="stop-color:#DCE8EF"/>
			</linearGradient>
			<rect x="42.52" y="0" class="st4" width="42.52" height="42.52"/>
		</g>
	</g>
</g>
</svg>
